<svg width="243" height="339" viewBox="0 0 243 339" fill="none" xmlns="http://www.w3.org/2000/svg">
<g style="mix-blend-mode:color-dodge">
<path d="M205.782 158.535C213.443 147.723 218.151 135.099 219.439 121.911C220.727 108.723 218.552 95.4268 213.129 83.3364C207.705 71.246 199.22 60.7796 188.513 52.9712C177.806 45.1628 165.246 40.2826 152.075 38.8128V0.209473H117.575V38.3237H94.0636V0.209473H59.4656V38.3237H0.769531V81.459H41.8241V257H0.769531V300.135H59.4656V338.217H93.9658V300.135H117.477V338.217H152.075V300.135H166.586C183.253 300.117 199.455 294.638 212.711 284.537C225.968 274.437 235.549 260.271 239.988 244.208C244.426 228.146 243.479 211.071 237.289 195.598C231.1 180.126 220.01 167.107 205.717 158.535H205.782ZM143.564 81.459C152.342 81.459 160.761 84.9456 166.968 91.1518C173.175 97.358 176.662 105.775 176.662 114.552C176.662 123.329 173.175 131.747 166.968 137.953C160.761 144.159 152.342 147.645 143.564 147.646H84.8679V81.459H143.564ZM166.586 257H85.0636V190.781H166.586C175.188 191.051 183.348 194.657 189.338 200.837C195.328 207.017 198.677 215.285 198.677 223.89C198.677 232.496 195.328 240.764 189.338 246.944C183.348 253.123 175.188 256.73 166.586 257V257Z" fill="#00c4f4"/>
</g>
</svg>
